<svg id="visual" viewBox="0 0 960 540" width="960" height="540" xmlns="http://www.w3.org/2000/svg" xmlns:xlink="http://www.w3.org/1999/xlink" version="1.1">
<path d="M0 223L16 222.3C32 221.7 64 220.3 96 206.5C128 192.7 160 166.3 192 164.3C224 162.3 256 184.7 288 187.7C320 190.7 352 174.3 384 167.2C416 160 448 162 480 158C512 154 544 144 576 150.3C608 156.7 640 179.3 672 192.7C704 206 736 210 768 210.5C800 211 832 208 864 196.5C896 185 928 165 944 155L960 145L960 0L944 0C928 0 896 0 864 0C832 0 800 0 768 0C736 0 704 0 672 0C640 0 608 0 576 0C544 0 512 0 480 0C448 0 416 0 384 0C352 0 320 0 288 0C256 0 224 0 192 0C160 0 128 0 96 0C64 0 32 0 16 0L0 0Z" fill="#473bf0">
</path>
    <path d="M0 184L16 181.7C32 179.3 64 174.7 96 167.7C128 160.7 160 151.3 192 145.7C224 140 256 138 288 137.2C320 136.3 352 136.7 384 136.3C416 136 448 135 480 139.5C512 144 544 154 576 154.2C608 154.3 640 144.7 672 142C704 139.3 736 143.7 768 143.8C800 144 832 140 864 139.3C896 138.7 928 141.3 944 142.7L960 144L960 0L944 0C928 0 896 0 864 0C832 0 800 0 768 0C736 0 704 0 672 0C640 0 608 0 576 0C544 0 512 0 480 0C448 0 416 0 384 0C352 0 320 0 288 0C256 0 224 0 192 0C160 0 128 0 96 0C64 0 32 0 16 0L0 0Z" fill="#4e47ec"></path>
    <path d="M0 96L16 101.8C32 107.7 64 119.3 96 127C128 134.7 160 138.3 192 133.7C224 129 256 116 288 113.3C320 110.7 352 118.3 384 125C416 131.7 448 137.3 480 130.3C512 123.3 544 103.7 576 93.8C608 84 640 84 672 93.7C704 103.3 736 122.7 768 131.3C800 140 832 138 864 129.2C896 120.3 928 104.7 944 96.8L960 89L960 0L944 0C928 0 896 0 864 0C832 0 800 0 768 0C736 0 704 0 672 0C640 0 608 0 576 0C544 0 512 0 480 0C448 0 416 0 384 0C352 0 320 0 288 0C256 0 224 0 192 0C160 0 128 0 96 0C64 0 32 0 16 0L0 0Z" fill="#5652e7"></path>
    <path d="M0 68L16 67.2C32 66.3 64 64.7 96 65C128 65.3 160 67.7 192 69C224 70.3 256 70.7 288 69.8C320 69 352 67 384 64.8C416 62.7 448 60.3 480 59.5C512 58.7 544 59.3 576 62.3C608 65.3 640 70.7 672 73.3C704 76 736 76 768 76.8C800 77.7 832 79.3 864 78.3C896 77.3 928 73.7 944 71.8L960 70L960 0L944 0C928 0 896 0 864 0C832 0 800 0 768 0C736 0 704 0 672 0C640 0 608 0 576 0C544 0 512 0 480 0C448 0 416 0 384 0C352 0 320 0 288 0C256 0 224 0 192 0C160 0 128 0 96 0C64 0 32 0 16 0L0 0Z" fill="#5e5ce2"></path>
    <path d="M0 33L16 36.3C32 39.7 64 46.3 96 50C128 53.7 160 54.3 192 50.8C224 47.3 256 39.7 288 37.7C320 35.7 352 39.3 384 37.7C416 36 448 29 480 30.8C512 32.7 544 43.3 576 48.7C608 54 640 54 672 49C704 44 736 34 768 35C800 36 832 48 864 54.3C896 60.7 928 61.3 944 61.7L960 62L960 0L944 0C928 0 896 0 864 0C832 0 800 0 768 0C736 0 704 0 672 0C640 0 608 0 576 0C544 0 512 0 480 0C448 0 416 0 384 0C352 0 320 0 288 0C256 0 224 0 192 0C160 0 128 0 96 0C64 0 32 0 16 0L0 0Z" fill="#6665dd">
</path>
</svg>